<!DOCTYPE svg PUBLIC "-//W3C//DTD SVG 1.1//EN" "http://www.w3.org/Graphics/SVG/1.1/DTD/svg11.dtd">
<!-- Uploaded to: SVG Repo, www.svgrepo.com, Transformed by: SVG Repo Mixer Tools -->
<svg fill="#fff" width="800px" height="800px" viewBox="0 0 24 24" xmlns="http://www.w3.org/2000/svg" stroke="#fff">
<g id="SVGRepo_bgCarrier" stroke-width="0"/>
<g id="SVGRepo_tracerCarrier" stroke-linecap="round" stroke-linejoin="round"/>
<g id="SVGRepo_iconCarrier">
<path d="M21.555,8.168l-9-6A1,1,0,0,0,12,2h0a1,1,0,0,0-.554.168l-9,6A1,1,0,0,0,3,10H4V21a1,1,0,0,0,1,1H19a1,1,0,0,0,1-1V10h1a1,1,0,0,0,.556-1.832ZM18,20H6V8.2l6-4,6,4Z"/>
</g>
</svg>